<svg width="14" height="25" viewBox="0 0 14 25" xmlns="http://www.w3.org/2000/svg"><title>Gobelins</title><path d="M13.876 19.836c-.275-1.241-1.07-2.108-2.187-2.659a14.34 14.34 0 0 0-2.072-.79c-2.485-.774-4.979-1.536-7.464-2.321a2.077 2.077 0 0 1-.758-.441c-.378-.347-.387-.791-.082-1.201.122-.153.26-.292.414-.412.15-.122.318-.217.503-.339a.333.333 0 0 0-.083 0 3.18 3.18 0 0 0-.162.082 3.87 3.87 0 0 0-1.254 1.127c-.568.8-.819 1.78-.704 2.754a3.867 3.867 0 0 0 1.548 2.794 5.96 5.96 0 0 0 1.934.98c2.75.855 5.505 1.7 8.255 2.561.256.084.496.21.71.373.528.399.58.987.193 1.507a3.14 3.14 0 0 1-1.048.81c-.048.025-.093.054-.14.081a.362.362 0 0 0 .194-.048c1.907-.942 2.644-2.852 2.203-4.858M6.994 4.776a1.37 1.37 0 0 1 1.393 1.423 1.39 1.39 0 0 1-1.383 1.39 1.413 1.413 0 0 1-1.4-1.425 1.398 1.398 0 0 1 1.39-1.389m-.153 7.6A6.19 6.19 0 1 0 7.124 0a6.19 6.19 0 0 0-.283 12.375" fill="#E8E8E9" fill-rule="evenodd"/></svg>