<svg width="48" height="90" viewBox="0 0 48 90" xmlns="http://www.w3.org/2000/svg"><title>Icon-cooking</title><path d="M26.38 67.759a1.552 1.552 0 1 0 0 3.104 1.552 1.552 0 0 0 0-3.104zm0 12.413a1.552 1.552 0 1 0 0 3.105 1.552 1.552 0 0 0 0-3.105zm0-6.206a1.552 1.552 0 1 0 0 3.104 1.552 1.552 0 0 0 0-3.104zm18.103 11.31c-5.61 1.343-11.697 1.485-17.589 1.62H20.69V65.602l8.297-8.296c.01-.011.014-.026.024-.037 3.695.504 7.056 1.512 9.723 2.922 2.148 1.135 5.75 3.56 5.75 7.051v18.036zm-25.56-20.835a1.03 1.03 0 0 0-.302.731v21.675c-5.248-.137-10.577-.385-15.518-1.57V67.242c0-3.491 3.603-5.916 5.75-7.05 3.96-2.094 9.406-3.294 14.94-3.294.85 0 1.713.034 2.581.094l-7.45 7.45zm21.26-6.995c-3.034-1.604-6.767-2.719-10.83-3.265l-.16-.032a41.955 41.955 0 0 0-5.4-.356c-6.169 0-12.012 1.34-16.39 3.653C3.026 59.76 0 63.157 0 67.24v19.656c.01.45.31.843.744.969 6.29 1.79 12.92 1.973 19.914 2.134h6.271c6.994-.161 13.624-.343 19.913-2.134.434-.126.734-.518.744-.97V67.242c0-4.084-3.026-7.481-7.403-9.795zM13.675 10.313c.368-.079.666-.35.776-.712 1.269-4.093 4.763-6.498 9.342-6.498 4.579 0 8.073 2.405 9.343 6.498.11.361.407.633.775.712 3.753.895 6.434 3.37 6.434 7.273 0 4.082-2.638 7.545-6.402 8.276-.494.094-.849.53-.84 1.035v7.24h-18.62v-7.24c.01-.504-.346-.94-.841-1.035-3.763-.731-6.4-4.194-6.4-8.276 0-3.903 2.68-6.378 6.433-7.273zm10.118 39.342c-4.457 0-8.276-5.688-8.276-10.345 0-.705.085-1.398.254-2.069h16.045a8.47 8.47 0 0 1 .253 2.07c0 4.656-3.818 10.344-8.276 10.344zM11.38 28.437v5.7c0 1.437.98 2.633 2.304 2.987-.15.714-.235 1.445-.235 2.186 0 5.74 4.519 12.414 10.345 12.414 5.826 0 10.345-6.673 10.345-12.414 0-.741-.085-1.472-.235-2.186a3.096 3.096 0 0 0 2.304-2.986v-5.702c4.286-1.607 7.241-5.914 7.241-10.85 0-4.709-2.936-8.456-7.74-9.993C33.768 2.873 29.306 0 23.793 0c-5.518 0-9.984 2.88-11.916 7.594-4.803 1.537-7.74 5.283-7.74 9.992 0 4.938 2.96 9.247 7.242 10.85z" fill="#F9F9FF" fill-rule="evenodd"/></svg>