<svg width="443" height="330" viewBox="0 0 443 330" xmlns="http://www.w3.org/2000/svg"><title>line</title><g fill="#FF5722" fill-rule="evenodd"><path d="M40.518 41.932L.632 2.046C.282 1.697.317 1.098.707.707c.39-.39.99-.424 1.339-.075l41.3 41.3h-2.828zm115 115l172.464 172.464c.349.349.948.315 1.339-.075.39-.39.424-.99.075-1.34l-171.05-171.05h-2.828z"/><path d="M349.566 105.356l91.696-91.695c.299-.3.858-.225 1.248.166.39.39.465.949.166 1.248l-90.282 90.281h-2.828zm-82 82L160.889 294.034c-.299.298-.225.857.166 1.248.39.39.95.465 1.248.166l108.091-108.092h-2.828z"/></g></svg>