<?xml version="1.0" encoding="UTF-8"?>
<svg width="14px" height="25px" viewBox="0 0 14 25" version="1.1" xmlns="http://www.w3.org/2000/svg" xmlns:xlink="http://www.w3.org/1999/xlink">
    <title>Gobelins</title>
    <desc>Created with Sketch.</desc>
    <defs></defs>
    <g id="workshop-responsive-design" stroke="none" stroke-width="1" fill="none" fill-rule="evenodd">
        <g id="footer" transform="translate(-633.000000, 0.000000)" fill="#E8E8E9">
            <path d="M646.876122,19.8361553 C646.601464,18.5946174 645.806504,17.7282483 644.688531,17.1770982 C644.019488,16.860332 643.326847,16.5959734 642.616992,16.3861496 C640.131533,15.6126057 637.638337,14.850665 635.152877,14.065518 C634.871643,13.9742398 634.613039,13.8237855 634.394667,13.6245979 C634.017496,13.2784371 634.007825,12.8336493 634.31343,12.4236711 C634.434705,12.2705094 634.573582,12.1322384 634.727351,12.011759 C634.876285,11.8899258 635.044562,11.7951667 635.230246,11.6733335 C635.202587,11.6698526 635.174734,11.6698526 635.147075,11.6733335 C635.092917,11.6984737 635.038759,11.7255477 634.984601,11.7545556 C634.489057,12.0336116 634.061016,12.418643 633.731233,12.8819958 C633.163349,13.6810667 632.912482,14.6623071 633.027181,15.635812 C633.116155,16.7466211 633.68017,17.765185 634.574549,18.4302393 C635.153844,18.872513 635.809542,19.2049435 636.508758,19.4107062 C639.259204,20.2654722 642.013519,21.1105689 644.763965,21.9711365 C645.019861,22.0546792 645.259896,22.1809602 645.47382,22.3443714 C646.001859,22.7427465 646.054083,23.3306398 645.667241,23.8508481 C645.37943,24.1923677 645.021988,24.4687163 644.618899,24.6611353 C644.570544,24.6862755 644.526057,24.7152834 644.479636,24.7423574 C644.547333,24.744678 644.61445,24.7278535 644.673057,24.6940109 C646.580188,23.7522212 647.317121,21.8415679 646.876122,19.8361553 M639.994204,4.77525592 C640.370988,4.76848741 640.733846,4.91739461 640.997478,5.18678126 C641.260918,5.45616792 641.401728,5.82205418 641.386835,6.19857666 C641.386835,6.96341818 640.768855,7.5847673 640.003875,7.5890218 C639.629025,7.58592762 639.27081,7.43392625 639.008144,7.16666683 C638.745478,6.89940742 638.599832,6.5385492 638.603507,6.16376719 C638.60873,5.39834552 639.228644,4.77951041 639.994204,4.77525592 M639.841401,12.3753246 C642.354713,12.4325668 644.653135,10.9643805 645.656989,8.65979992 C646.661038,6.35541269 646.171102,3.6727625 644.417354,1.87175895 C642.6638,0.0707554038 639.994784,-0.490837456 637.663868,0.450952223 C635.332952,1.39254852 633.803186,3.65032973 633.793128,6.16376719 C633.779589,9.53622514 636.4693,12.298357 639.841401,12.3753246" id="gobelins"></path>
        </g>
    </g>
</svg>
