<?xml version="1.0" encoding="UTF-8"?>
<svg width="26px" height="15px" viewBox="0 0 26 15" version="1.1" xmlns="http://www.w3.org/2000/svg" xmlns:xlink="http://www.w3.org/1999/xlink">
    <title>Right-arrow</title>
    <desc>Created with Sketch.</desc>
    <defs></defs>
    <g id="workshop-responsive-design" stroke="none" stroke-width="1" fill="none" fill-rule="evenodd">
        <g id="home-icon-rightarrow-darkgray" transform="translate(-994.000000, -2210.000000)" fill="#222831">
            <path d="M1001.73307,2210.0029 C1001.53698,2210.01996 1001.35243,2210.10584 1001.20976,2210.24589 L994.278435,2216.82924 C993.926959,2217.16589 993.905299,2217.73415 994.230205,2218.09803 C994.245511,2218.11539 994.261684,2218.13185 994.278435,2218.148 L1001.20976,2224.73136 C1001.54506,2225.08506 1002.0935,2225.09015 1002.43487,2224.74273 C1002.77653,2224.39531 1002.78144,2223.82674 1002.44584,2223.47304 C1002.42592,2223.45179 1002.40483,2223.43174 1002.38289,2223.41289 L997.094285,2218.39099 L1019.12463,2218.39099 C1019.58239,2218.39757 1020,2217.96756 1020,2217.49326 C1020,2217.01896 1019.58239,2216.58895 1019.12463,2216.59553 L997.094285,2216.59553 L1002.38289,2211.56465 C1002.7384,2211.23249 1002.76671,2210.66483 1002.44613,2210.29646 C1002.26534,2210.08908 1002.00195,2209.98046 1001.73307,2210.0029" id="arrow" transform="translate(1007.000000, 2217.500000) rotate(-180.000000) translate(-1007.000000, -2217.500000) "></path>
        </g>
    </g>
</svg>
