<?xml version="1.0" encoding="UTF-8"?>
<svg width="48px" height="90px" viewBox="0 0 48 90" version="1.1" xmlns="http://www.w3.org/2000/svg" xmlns:xlink="http://www.w3.org/1999/xlink">
    <title>Icon-cooking</title>
    <desc>Created with Sketch.</desc>
    <defs></defs>
    <g id="workshop-responsive-design" stroke="none" stroke-width="1" fill="none" fill-rule="evenodd">
        <g id="home-icon-cooking" transform="translate(-446.000000, -1014.000000)" fill="#F9F9FF">
            <path d="M472.37931,1081.75862 C471.522759,1081.75862 470.827586,1082.45379 470.827586,1083.31034 C470.827586,1084.1669 471.522759,1084.86207 472.37931,1084.86207 C473.235862,1084.86207 473.931034,1084.1669 473.931034,1083.31034 C473.931034,1082.45379 473.235862,1081.75862 472.37931,1081.75862 L472.37931,1081.75862 Z M472.37931,1094.17241 C471.522759,1094.17241 470.827586,1094.86759 470.827586,1095.72414 C470.827586,1096.58069 471.522759,1097.27586 472.37931,1097.27586 C473.235862,1097.27586 473.931034,1096.58069 473.931034,1095.72414 C473.931034,1094.86759 473.235862,1094.17241 472.37931,1094.17241 L472.37931,1094.17241 Z M472.37931,1087.96552 C471.522759,1087.96552 470.827586,1088.66069 470.827586,1089.51724 C470.827586,1090.37379 471.522759,1091.06897 472.37931,1091.06897 C473.235862,1091.06897 473.931034,1090.37379 473.931034,1089.51724 C473.931034,1088.66069 473.235862,1087.96552 472.37931,1087.96552 L472.37931,1087.96552 Z M490.482759,1099.27655 C484.872759,1100.61931 478.785862,1100.76103 472.894483,1100.89655 L466.698966,1100.89655 L466.689655,1100.89655 L466.689655,1079.60069 L474.986207,1071.30517 C474.996552,1071.29379 474.999655,1071.27931 475.01,1071.26793 C478.705172,1071.77172 482.066207,1072.78034 484.733103,1074.19034 C486.88069,1075.32517 490.482759,1077.75 490.482759,1081.24138 L490.482759,1099.27655 Z M464.923793,1078.44103 C464.72931,1078.63448 464.62069,1078.89724 464.62069,1079.17241 L464.62069,1100.8469 C459.372759,1100.71034 454.044138,1100.46207 449.103448,1099.27759 L449.103448,1081.24138 C449.103448,1077.75 452.705517,1075.32517 454.853103,1074.19034 C458.813103,1072.09655 464.258621,1070.89655 469.793103,1070.89655 C470.643448,1070.89655 471.506207,1070.93069 472.374138,1070.99069 L464.923793,1078.44103 Z M486.183448,1071.44586 C483.14931,1069.84241 479.415862,1068.72724 475.353448,1068.18103 L475.192069,1068.14897 C473.442759,1067.92138 471.62931,1067.7931 469.793103,1067.7931 C463.624483,1067.7931 457.78069,1069.13276 453.402759,1071.44586 C449.025862,1073.76 446,1077.15724 446,1081.24138 L446,1100.89655 C446.010345,1101.34759 446.310345,1101.73966 446.743793,1101.86586 C453.033448,1103.65655 459.663448,1103.83862 466.657586,1104 L466.673103,1104 L466.689655,1104 L472.896552,1104 L472.913103,1104 L472.928621,1104 C479.922759,1103.83862 486.552759,1103.65655 492.842414,1101.86586 C493.275862,1101.73966 493.575862,1101.34759 493.586207,1100.89655 L493.586207,1081.24138 C493.586207,1077.15724 490.560345,1073.76 486.183448,1071.44586 L486.183448,1071.44586 Z M459.674828,1024.31276 C460.043103,1024.23414 460.341034,1023.96207 460.45069,1023.60103 C461.72,1019.50759 465.214483,1017.10345 469.793103,1017.10345 C474.371724,1017.10345 477.866207,1019.50759 479.135517,1023.60103 C479.245172,1023.96207 479.543103,1024.23414 479.911379,1024.31276 C483.664483,1025.20759 486.344828,1027.6831 486.344828,1031.58621 C486.344828,1035.66828 483.706897,1039.13069 479.943448,1039.86207 C479.448966,1039.95621 479.094138,1040.39276 479.103448,1040.89655 L479.103448,1048.13793 L460.482759,1048.13793 L460.482759,1040.89655 C460.492069,1040.39276 460.137241,1039.95621 459.641724,1039.86207 C455.87931,1039.13069 453.241379,1035.66828 453.241379,1031.58621 C453.241379,1027.6831 455.921724,1025.20759 459.674828,1024.31276 L459.674828,1024.31276 Z M469.793103,1063.65517 C465.335517,1063.65517 461.517241,1057.96655 461.517241,1053.31034 C461.517241,1052.60483 461.602069,1051.91172 461.77069,1051.24138 L477.815517,1051.24138 C477.984138,1051.91172 478.068966,1052.60483 478.068966,1053.31034 C478.068966,1057.96655 474.25069,1063.65517 469.793103,1063.65517 L469.793103,1063.65517 Z M457.37931,1042.4369 L457.37931,1048.13793 C457.37931,1049.57379 458.358966,1050.76966 459.683103,1051.12448 C459.533103,1051.83828 459.448276,1052.56862 459.448276,1053.31034 C459.448276,1059.05069 463.966897,1065.72414 469.793103,1065.72414 C475.61931,1065.72414 480.137931,1059.05069 480.137931,1053.31034 C480.137931,1052.56862 480.053103,1051.83828 479.903103,1051.12448 C481.227241,1050.76966 482.206897,1049.57379 482.206897,1048.13793 L482.206897,1042.43586 C486.492759,1040.82931 489.448276,1036.52172 489.448276,1031.58621 C489.448276,1026.87724 486.512414,1023.13034 481.708276,1021.5931 C479.768621,1016.87379 475.305862,1014 469.793103,1014 C464.275172,1014 459.80931,1016.88 457.876897,1021.59414 C453.073793,1023.13138 450.137931,1026.87724 450.137931,1031.58621 C450.137931,1036.52379 453.097586,1040.83345 457.37931,1042.4369 L457.37931,1042.4369 Z" id="cook"></path>
        </g>
    </g>
</svg>
