<?xml version="1.0" encoding="UTF-8"?>
<svg width="443px" height="330px" viewBox="0 0 443 330" version="1.1" xmlns="http://www.w3.org/2000/svg" xmlns:xlink="http://www.w3.org/1999/xlink">
    <!-- Generator: Sketch 40.1 (33804) - http://www.bohemiancoding.com/sketch -->
    <title>line</title>
    <desc>Created with Sketch.</desc>
    <defs></defs>
    <g id="workshop---responsive-design" stroke="none" stroke-width="1" fill="none" fill-rule="evenodd">
        <g id="desktop---accueil" transform="translate(-690.000000, -280.000000)" fill="#FF5722">
            <g id="HEADING">
                <g id="identity" transform="translate(690.000000, 280.000000)">
                    <g id="line">
                        <path d="M40.5177202,41.9319337 L0.631734165,2.04594773 C0.28283702,1.69705058 0.316582489,1.09763107 0.707106781,0.707106781 C1.09763107,0.316582489 1.69705058,0.28283702 2.04594773,0.631734165 L43.3461473,41.9319337 L40.5177202,41.9319337 Z M155.51772,156.931934 L327.981895,329.396109 C328.330793,329.745006 328.930212,329.711261 329.320736,329.320736 C329.711261,328.930212 329.745006,328.330793 329.396109,327.981895 L158.346147,156.931934 L155.51772,156.931934 Z" id="line-01"></path>
                        <path d="M349.566008,105.356398 L441.261869,13.6605372 C441.560697,13.3617093 442.119527,13.4360439 442.510051,13.8265682 C442.900576,14.2170925 442.97491,14.7759228 442.676082,15.0747507 L352.394435,105.356398 L349.566008,105.356398 Z M267.566008,187.356398 L160.888836,294.03357 C160.590008,294.332398 160.664343,294.891228 161.054867,295.281752 C161.445392,295.672277 162.004222,295.746611 162.30305,295.447783 L270.394435,187.356398 L267.566008,187.356398 Z" id="line-02"></path>
                    </g>
                </g>
            </g>
        </g>
    </g>
</svg>